/* XPM */
static char *dummy[]={
"24 26 3 1",
". c None",
"# c #000900",
"a c #00ff00",
"........................",
"########################",
"########################",
"########################",
"########################",
"########################",
"########################",
"########################",
"########################",
"######aaaaaaaaaaaa######",
"######aaaaaaaaaaaa######",
"#######aaaaaaaaaa#######",
"########aaaaaaaa########",
"#########aaaaaa#########",
"##########aaaa##########",
"###########aa###########",
"########################",
"########################",
"########################",
"########################",
"########################",
"########################",
"########################",
"########################",
"########################",
"########################"};
