/* XPM */
static char *dummy[]={
"2 26 3 1",
". c None",
"a c #000000",
"# c #00aa00",
".#",
"##",
"#a",
"#a",
"#a",
"#a",
"#a",
"#a",
"#a",
"#a",
"#a",
"#a",
"#a",
"#a",
"#a",
"#a",
"#a",
"#a",
"#a",
"#a",
"#a",
"#a",
"#a",
"#a",
"#a",
"#a"};
